<?xml version="1.0" standalone="no"?>
<svg xmlns:xlink="http://www.w3.org/1999/xlink" id="wave" style="transform:rotate(0deg); transition: 0.3s" viewBox="0 0 1440 100" version="1.1" xmlns="http://www.w3.org/2000/svg"><defs><linearGradient id="sw-gradient-0" x1="0" x2="0" y1="1" y2="0"><stop stop-color="rgba(255, 245, 224, 1)" offset="0%"/><stop stop-color="rgba(255, 245, 224, 1)" offset="100%"/></linearGradient></defs><path style="transform:translate(0, 0px); opacity:1" fill="url(#sw-gradient-0)" d="M0,30L21.8,25C43.6,20,87,10,131,5C174.5,0,218,0,262,11.7C305.5,23,349,47,393,56.7C436.4,67,480,63,524,58.3C567.3,53,611,47,655,41.7C698.2,37,742,33,785,38.3C829.1,43,873,57,916,56.7C960,57,1004,43,1047,43.3C1090.9,43,1135,57,1178,61.7C1221.8,67,1265,63,1309,58.3C1352.7,53,1396,47,1440,38.3C1483.6,30,1527,20,1571,28.3C1614.5,37,1658,63,1702,66.7C1745.5,70,1789,50,1833,50C1876.4,50,1920,70,1964,66.7C2007.3,63,2051,37,2095,31.7C2138.2,27,2182,43,2225,56.7C2269.1,70,2313,80,2356,71.7C2400,63,2444,37,2487,35C2530.9,33,2575,57,2618,58.3C2661.8,60,2705,40,2749,31.7C2792.7,23,2836,27,2880,36.7C2923.6,47,2967,63,3011,58.3C3054.5,53,3098,27,3120,13.3L3141.8,0L3141.8,100L3120,100C3098.2,100,3055,100,3011,100C2967.3,100,2924,100,2880,100C2836.4,100,2793,100,2749,100C2705.5,100,2662,100,2618,100C2574.5,100,2531,100,2487,100C2443.6,100,2400,100,2356,100C2312.7,100,2269,100,2225,100C2181.8,100,2138,100,2095,100C2050.9,100,2007,100,1964,100C1920,100,1876,100,1833,100C1789.1,100,1745,100,1702,100C1658.2,100,1615,100,1571,100C1527.3,100,1484,100,1440,100C1396.4,100,1353,100,1309,100C1265.5,100,1222,100,1178,100C1134.5,100,1091,100,1047,100C1003.6,100,960,100,916,100C872.7,100,829,100,785,100C741.8,100,698,100,655,100C610.9,100,567,100,524,100C480,100,436,100,393,100C349.1,100,305,100,262,100C218.2,100,175,100,131,100C87.3,100,44,100,22,100L0,100Z"/></svg>